<?xml version="1.0"?>
<svg xmlns="http://www.w3.org/2000/svg" id="Solid" viewBox="0 0 512 512" width="512" height="512"><path d="M32,408H480V104H32ZM48,152a8,8,0,0,1,8-8c.691-.011,18.4-.49,24.411-18.53A8,8,0,0,1,88,120H424a8,8,0,0,1,7.59,5.47C437.7,143.788,455.817,144,456,144a8,8,0,0,1,8,8V360a8,8,0,0,1-8,8c-.691.011-18.4.49-24.41,18.53A8,8,0,0,1,424,392H88a8,8,0,0,1-7.589-5.47C74.305,368.212,56.182,368,56,368a8,8,0,0,1-8-8Z"/><path d="M93.378,376H418.622A42.676,42.676,0,0,1,448,352.975V159.025A42.676,42.676,0,0,1,418.622,136H93.378A42.674,42.674,0,0,1,64,159.025v193.95A42.674,42.674,0,0,1,93.378,376ZM176,344H144a8,8,0,0,1,0-16h32a8,8,0,0,1,0,16Zm64,0H208a8,8,0,0,1,0-16h32a8,8,0,0,1,0,16Zm0-32H144a8,8,0,0,1,0-16h96a8,8,0,0,1,0,16ZM376,168a55.962,55.962,0,0,1,40,95.138V336a8,8,0,0,1-13.657,5.657L376,315.313l-26.343,26.344A8,8,0,0,1,336,336V263.138A55.962,55.962,0,0,1,376,168Zm-264,8a8,8,0,0,1,8-8H264a8,8,0,0,1,8,8v32a8,8,0,0,1-8,8H120a8,8,0,0,1-8-8ZM96,232H288a8,8,0,0,1,0,16H96a8,8,0,0,1,0-16Zm0,32H288a8,8,0,0,1,0,16H96a8,8,0,0,1,0-16Z"/><rect x="128" y="184" width="128" height="16"/><path d="M352,274.586v42.1l18.343-18.344a8,8,0,0,1,11.314,0L400,316.687v-42.1a55.9,55.9,0,0,1-48,0Z"/><circle cx="376" cy="224" r="8"/><path d="M376,264a40,40,0,1,0-40-40A40.045,40.045,0,0,0,376,264Zm0-64a24,24,0,1,1-24,24A24.027,24.027,0,0,1,376,200Z"/></svg>
